<?xml version="1.0" encoding="UTF-8" standalone="no"?>
<!-- Generated by IcoMoon.io -->

<svg
   xmlns:dc="http://purl.org/dc/elements/1.1/"
   xmlns:cc="http://creativecommons.org/ns#"
   xmlns:rdf="http://www.w3.org/1999/02/22-rdf-syntax-ns#"
   xmlns:svg="http://www.w3.org/2000/svg"
   xmlns="http://www.w3.org/2000/svg"
   xmlns:sodipodi="http://sodipodi.sourceforge.net/DTD/sodipodi-0.dtd"
   xmlns:inkscape="http://www.inkscape.org/namespaces/inkscape"
   version="1.1"
   width="16"
   height="16"
   viewBox="0 0 16 16"
   id="svg4"
   sodipodi:docname="logo.svg"
   inkscape:version="0.92.4 (unknown)">
  <metadata
     id="metadata10">
    <rdf:RDF>
      <cc:Work
         rdf:about="">
        <dc:format>image/svg+xml</dc:format>
        <dc:type
           rdf:resource="http://purl.org/dc/dcmitype/StillImage" />
        <dc:title></dc:title>
      </cc:Work>
    </rdf:RDF>
  </metadata>
  <defs
     id="defs8">
    <linearGradient
       x1="0"
       y1="0"
       x2="1"
       y2="0"
       gradientUnits="userSpaceOnUse"
       gradientTransform="matrix(6699.97,8674.97,8674.97,-6699.97,10024.8,13400.8)"
       spreadMethod="pad"
       id="linearGradient1540">
      <stop
         style="stop-opacity:1;stop-color:#53e4fa"
         offset="0"
         id="stop1536" />
      <stop
         style="stop-opacity:1;stop-color:#6860eb"
         offset="1"
         id="stop1538" />
    </linearGradient>
  </defs>
  <sodipodi:namedview
     pagecolor="#ffffff"
     bordercolor="#666666"
     borderopacity="1"
     objecttolerance="10"
     gridtolerance="10"
     guidetolerance="10"
     inkscape:pageopacity="0"
     inkscape:pageshadow="2"
     inkscape:window-width="1600"
     inkscape:window-height="844"
     id="namedview6"
     showgrid="false"
     inkscape:zoom="14.75"
     inkscape:cx="14.153383"
     inkscape:cy="10.681285"
     inkscape:window-x="0"
     inkscape:window-y="0"
     inkscape:window-maximized="1"
     inkscape:current-layer="svg4" />
  <path
     style="opacity:1;fill:#ffffff;fill-opacity:1;fill-rule:nonzero;stroke:none;stroke-width:0.09649237;stroke-linecap:butt;stroke-linejoin:miter;stroke-miterlimit:4;stroke-dasharray:none;stroke-opacity:1;paint-order:normal"
     d="M 4.2247981,15.659604 C 4.029251,15.589757 3.792062,15.392491 3.5698965,15.11494 3.2951537,14.771685 3.2009025,14.580949 3.2009025,14.368176 c 0,-0.415813 0.3158958,-0.58932 1.3838538,-0.760079 l 0.4446978,-0.0711 0.018231,-0.09826 c 0.010264,-0.05404 0.090441,-0.742812 0.1785626,-1.530597 0.151225,-1.352286 0.259489,-2.1116577 0.3648133,-2.5589442 L 5.637191,9.1532705 5.1032657,8.8988999 C 4.4870195,8.6053068 4.0636096,8.3617505 3.6972658,8.0901089 2.6591718,7.3204119 2.104035,6.3406595 1.8931419,4.9060321 1.8117988,4.352757 1.8197199,3.2360344 1.9106291,2.4529322 2.0130119,1.5699959 1.9811291,1.5937887 2.248364,2.2009586 2.3755275,2.4899125 2.534823,2.8204054 2.6023492,2.935395 c 0.138742,0.2362641 0.4329512,0.6433154 0.4648985,0.6432175 0.011643,-3.08e-5 0.022348,-0.3944468 0.0238,-0.8764726 0.00239,-0.7352423 0.016513,-0.992394 0.088446,-1.5965088 0.047113,-0.39605636 0.086223,-0.74342804 0.086884,-0.77194042 0,-0.028505 0.1002399,0.21125148 0.2212622,0.53280416 0.4007584,1.06481746 0.667002,1.51537236 1.2230577,2.06969506 0.5449533,0.5432799 1.0719104,0.8485924 2.3296722,1.3498334 0.6101197,0.243135 0.674245,0.2624186 0.7028548,0.211325 0.088906,-0.1588852 0.574006,-0.719853 0.8409838,-0.9725066 0.9273627,-0.8776443 1.8533626,-1.1374609 2.7929786,-0.7836356 0.576747,0.2171845 1.365168,0.9845689 1.767749,1.7206318 l 0.140014,0.2559603 0.50691,0.3035819 c 0.278785,0.1669731 0.502037,0.3084309 0.496141,0.3143502 -0.0058,0.00593 -0.205241,-0.018073 -0.442921,-0.053303 -0.23768,-0.035244 -0.569703,-0.065958 -0.737835,-0.06827 -0.268463,-0.00368 -0.325376,0.00575 -0.466859,0.077461 -0.473721,0.2400446 -0.861293,0.6568884 -1.15613,1.2434285 C 11.284299,6.9328336 11.15836,7.3012136 10.841638,8.4148531 10.674899,9.0011176 10.492585,9.6105743 10.4365,9.7692003 9.9225912,11.222663 9.2252499,12.172738 8.1648574,12.864174 c -0.5997203,0.391072 -1.560257,0.781734 -2.3104971,0.93971 -0.1769085,0.03725 -0.3525149,0.07473 -0.3902974,0.08328 -0.053849,0.01219 -0.073587,0.04859 -0.091497,0.168654 -0.04488,0.301072 -0.2089789,0.888126 -0.3068131,1.097711 -0.1171785,0.250952 -0.2555381,0.407281 -0.43361,0.489906 -0.1510096,0.07006 -0.2459657,0.07383 -0.4074207,0.01617 z m 0.325652,-0.436186 c 0.078384,-0.07838 0.1694496,-0.257513 0.2377864,-0.467714 0.060401,-0.185857 0.1845503,-0.763727 0.1676733,-0.780589 -0.021852,-0.02192 -0.9491871,0.152886 -1.1148544,0.210144 -0.2274338,0.0786 -0.2687697,0.145714 -0.1929125,0.313129 0.1447149,0.319468 0.6088175,0.788023 0.7805185,0.788023 0.032337,0 0.08716,-0.02835 0.1217887,-0.06299 z M 5.870515,13.375577 C 6.657252,13.196447 7.3761567,12.8918 8.0220382,12.463848 l 0.269888,-0.17884 -0.019435,-0.30853 C 8.2474227,11.576309 8.1549752,11.219851 7.9883136,10.880831 7.8801103,10.660667 7.7982489,10.552118 7.5619788,10.315585 7.2413202,9.9945823 6.9943134,9.8198813 6.4815077,9.5514419 5.9738021,9.2856568 6.02203,9.2726479 5.9403073,9.6974633 5.8353202,10.243096 5.789986,10.58202 5.6304764,12.014219 c -0.1555739,1.39688 -0.159142,1.438994 -0.1219109,1.438547 0.013324,-1.14e-4 0.1760815,-0.03489 0.3618264,-0.07719 z M 8.9508251,11.643824 C 9.5786038,10.902242 9.9668181,10.047209 10.405467,8.439879 L 10.540304,7.9457597 10.469483,7.7483518 C 10.351247,7.4188395 10.028904,6.8234255 9.8130031,6.535735 9.4109737,6.0000619 8.8728976,5.5646618 8.1863234,5.219468 8.0182825,5.1349683 7.5261683,4.9252284 7.0927577,4.753379 5.6790847,4.1928458 5.0611082,3.8493597 4.4982065,3.3112759 4.1638707,2.9916557 3.9226687,2.690385 3.6864289,2.2972463 3.5359238,2.0467981 3.523794,2.0346821 3.5037155,2.1147268 3.4656265,2.2664549 3.5141265,3.7999 3.5674885,4.1282592 3.7572316,5.2973973 4.1134985,6.1098487 4.7899333,6.915949 5.1043892,7.2906801 5.503432,7.6462501 6.4078372,8.3575342 6.8006616,8.6664764 7.2479939,9.038359 7.401899,9.1839365 c 0.7252756,0.6859538 1.1273362,1.4474215 1.2521868,2.3714365 0.025087,0.18575 0.045919,0.341342 0.046249,0.345763 0.00248,0.02847 0.050697,-0.02133 0.2504831,-0.257312 z M 6.7711214,9.1716949 C 6.7092135,9.1181188 6.405237,8.8762898 6.0956662,8.6343003 4.9508557,7.7394337 4.4287074,7.2158291 3.9889415,6.5216892 3.6727241,6.0225785 3.3724959,5.2564868 3.2389762,4.6079238 L 3.1760299,4.3023664 2.9344907,4.0523009 C 2.8016455,3.9147642 2.6009828,3.6719293 2.4885984,3.5126627 L 2.284214,3.2230913 2.2571333,3.3445947 c -0.038576,0.172897 0,1.1861106 0.059794,1.5774299 0.2057159,1.342738 0.7672401,2.2673716 1.8006466,2.9651031 0.3451176,0.2330101 0.806096,0.4781668 1.5287379,0.8129676 0.3621481,0.1677817 0.7742093,0.3643122 0.9157539,0.4367326 0.306951,0.1570839 0.3606318,0.1660404 0.2090557,0.034867 z M 11.079743,6.4167021 c 0.353802,-0.7375837 0.81285,-1.222777 1.44876,-1.5311712 0.150352,-0.072926 0.277975,-0.1348338 0.28358,-0.1375736 0.02541,-0.012392 -0.161607,-0.3341714 -0.28822,-0.4959388 C 11.97208,3.5470259 11.504899,3.1852638 10.969809,3.0486611 10.254916,2.866143 9.4030581,3.23104 8.642266,4.0456925 8.417941,4.2859039 8.1216495,4.6585795 8.1223994,4.699559 c 0,0.011519 0.1405651,0.093308 0.3118828,0.1817587 0.972299,0.5020069 1.7080508,1.2313675 2.1710208,2.1521371 l 0.129644,0.2578794 0.108648,-0.3044091 c 0.05976,-0.1674309 0.166034,-0.4240313 0.236148,-0.570223 z"
     id="path1435-93-3"
     inkscape:connector-curvature="0" />
</svg>
